<svg id="visual" viewBox="0 0 900 450" width="900" height="450" xmlns="http://www.w3.org/2000/svg" xmlns:xlink="http://www.w3.org/1999/xlink" version="1.1"><rect x="0" y="0" width="900" height="450" fill="#001220"></rect><defs><linearGradient id="grad1_0" x1="50%" y1="0%" x2="100%" y2="100%"><stop offset="10%" stop-color="#3cfacc" stop-opacity="1"></stop><stop offset="90%" stop-color="#3cfacc" stop-opacity="1"></stop></linearGradient></defs><defs><linearGradient id="grad1_1" x1="50%" y1="0%" x2="100%" y2="100%"><stop offset="10%" stop-color="#3cfacc" stop-opacity="1"></stop><stop offset="90%" stop-color="#00d6c3" stop-opacity="1"></stop></linearGradient></defs><defs><linearGradient id="grad1_2" x1="50%" y1="0%" x2="100%" y2="100%"><stop offset="10%" stop-color="#00b1b3" stop-opacity="1"></stop><stop offset="90%" stop-color="#00d6c3" stop-opacity="1"></stop></linearGradient></defs><defs><linearGradient id="grad1_3" x1="50%" y1="0%" x2="100%" y2="100%"><stop offset="10%" stop-color="#00b1b3" stop-opacity="1"></stop><stop offset="90%" stop-color="#008e9e" stop-opacity="1"></stop></linearGradient></defs><defs><linearGradient id="grad1_4" x1="50%" y1="0%" x2="100%" y2="100%"><stop offset="10%" stop-color="#006c83" stop-opacity="1"></stop><stop offset="90%" stop-color="#008e9e" stop-opacity="1"></stop></linearGradient></defs><defs><linearGradient id="grad1_5" x1="50%" y1="0%" x2="100%" y2="100%"><stop offset="10%" stop-color="#006c83" stop-opacity="1"></stop><stop offset="90%" stop-color="#004b63" stop-opacity="1"></stop></linearGradient></defs><defs><linearGradient id="grad1_6" x1="50%" y1="0%" x2="100%" y2="100%"><stop offset="10%" stop-color="#002d41" stop-opacity="1"></stop><stop offset="90%" stop-color="#004b63" stop-opacity="1"></stop></linearGradient></defs><defs><linearGradient id="grad1_7" x1="50%" y1="0%" x2="100%" y2="100%"><stop offset="10%" stop-color="#002d41" stop-opacity="1"></stop><stop offset="90%" stop-color="#001220" stop-opacity="1"></stop></linearGradient></defs><defs><linearGradient id="grad2_0" x1="0%" y1="0%" x2="50%" y2="100%"><stop offset="10%" stop-color="#3cfacc" stop-opacity="1"></stop><stop offset="90%" stop-color="#3cfacc" stop-opacity="1"></stop></linearGradient></defs><defs><linearGradient id="grad2_1" x1="0%" y1="0%" x2="50%" y2="100%"><stop offset="10%" stop-color="#00d6c3" stop-opacity="1"></stop><stop offset="90%" stop-color="#3cfacc" stop-opacity="1"></stop></linearGradient></defs><defs><linearGradient id="grad2_2" x1="0%" y1="0%" x2="50%" y2="100%"><stop offset="10%" stop-color="#00d6c3" stop-opacity="1"></stop><stop offset="90%" stop-color="#00b1b3" stop-opacity="1"></stop></linearGradient></defs><defs><linearGradient id="grad2_3" x1="0%" y1="0%" x2="50%" y2="100%"><stop offset="10%" stop-color="#008e9e" stop-opacity="1"></stop><stop offset="90%" stop-color="#00b1b3" stop-opacity="1"></stop></linearGradient></defs><defs><linearGradient id="grad2_4" x1="0%" y1="0%" x2="50%" y2="100%"><stop offset="10%" stop-color="#008e9e" stop-opacity="1"></stop><stop offset="90%" stop-color="#006c83" stop-opacity="1"></stop></linearGradient></defs><defs><linearGradient id="grad2_5" x1="0%" y1="0%" x2="50%" y2="100%"><stop offset="10%" stop-color="#004b63" stop-opacity="1"></stop><stop offset="90%" stop-color="#006c83" stop-opacity="1"></stop></linearGradient></defs><defs><linearGradient id="grad2_6" x1="0%" y1="0%" x2="50%" y2="100%"><stop offset="10%" stop-color="#004b63" stop-opacity="1"></stop><stop offset="90%" stop-color="#002d41" stop-opacity="1"></stop></linearGradient></defs><defs><linearGradient id="grad2_7" x1="0%" y1="0%" x2="50%" y2="100%"><stop offset="10%" stop-color="#001220" stop-opacity="1"></stop><stop offset="90%" stop-color="#002d41" stop-opacity="1"></stop></linearGradient></defs><g transform="translate(900, 0)"><path d="M0 360C-43 316.6 -85.9 273.1 -143.5 248.5C-201.1 224 -273.3 218.3 -311.8 180C-350.3 141.7 -355.1 70.9 -360 0L0 0Z" fill="#022030"></path><path d="M0 315C-37.6 277 -75.2 239 -125.6 217.5C-175.9 196 -239.1 191 -272.8 157.5C-306.5 124 -310.8 62 -315 0L0 0Z" fill="#003c52"></path><path d="M0 270C-32.2 237.4 -64.4 204.8 -107.6 186.4C-150.8 168 -204.9 163.7 -233.8 135C-262.7 106.3 -266.4 53.1 -270 0L0 0Z" fill="#005b73"></path><path d="M0 225C-26.9 197.8 -53.7 170.7 -89.7 155.3C-125.7 140 -170.8 136.4 -194.9 112.5C-218.9 88.6 -222 44.3 -225 0L0 0Z" fill="#007d91"></path><path d="M0 180C-21.5 158.3 -43 136.6 -71.7 124.3C-100.5 112 -136.6 109.1 -155.9 90C-175.1 70.9 -177.6 35.4 -180 0L0 0Z" fill="#00a0a9"></path><path d="M0 135C-16.1 118.7 -32.2 102.4 -53.8 93.2C-75.4 84 -102.5 81.9 -116.9 67.5C-131.4 53.1 -133.2 26.6 -135 0L0 0Z" fill="#00c4bc"></path><path d="M0 90C-10.7 79.1 -21.5 68.3 -35.9 62.1C-50.3 56 -68.3 54.6 -77.9 45C-87.6 35.4 -88.8 17.7 -90 0L0 0Z" fill="#00e8c8"></path><path d="M0 45C-5.4 39.6 -10.7 34.1 -17.9 31.1C-25.1 28 -34.2 27.3 -39 22.5C-43.8 17.7 -44.4 8.9 -45 0L0 0Z" fill="#3cfacc"></path></g><g transform="translate(0, 450)"><path d="M0 -360C71 -355.2 142 -350.4 180 -311.8C218 -273.1 223.2 -200.6 247.7 -143C272.2 -85.4 316.1 -42.7 360 0L0 0Z" fill="#022030"></path><path d="M0 -315C62.1 -310.8 124.2 -306.6 157.5 -272.8C190.8 -239 195.3 -175.5 216.7 -125.1C238.2 -74.7 276.6 -37.4 315 0L0 0Z" fill="#003c52"></path><path d="M0 -270C53.2 -266.4 106.5 -262.8 135 -233.8C163.5 -204.8 167.4 -150.5 185.8 -107.3C204.1 -64 237.1 -32 270 0L0 0Z" fill="#005b73"></path><path d="M0 -225C44.4 -222 88.7 -219 112.5 -194.9C136.3 -170.7 139.5 -125.4 154.8 -89.4C170.1 -53.4 197.6 -26.7 225 0L0 0Z" fill="#007d91"></path><path d="M0 -180C35.5 -177.6 71 -175.2 90 -155.9C109 -136.6 111.6 -100.3 123.8 -71.5C136.1 -42.7 158 -21.3 180 0L0 0Z" fill="#00a0a9"></path><path d="M0 -135C26.6 -133.2 53.2 -131.4 67.5 -116.9C81.8 -102.4 83.7 -75.2 92.9 -53.6C102.1 -32 118.5 -16 135 0L0 0Z" fill="#00c4bc"></path><path d="M0 -90C17.7 -88.8 35.5 -87.6 45 -77.9C54.5 -68.3 55.8 -50.2 61.9 -35.8C68 -21.3 79 -10.7 90 0L0 0Z" fill="#00e8c8"></path><path d="M0 -45C8.9 -44.4 17.7 -43.8 22.5 -39C27.3 -34.1 27.9 -25.1 31 -17.9C34 -10.7 39.5 -5.3 45 0L0 0Z" fill="#3cfacc"></path></g></svg>