<svg id="visual" viewBox="0 0 960 540" width="960" height="540" xmlns="http://www.w3.org/2000/svg" xmlns:xlink="http://www.w3.org/1999/xlink" version="1.1"><rect x="0" y="0" width="960" height="540" fill="#ffffff"></rect><path d="M0 105L17.8 110.3C35.7 115.7 71.3 126.3 106.8 120.8C142.3 115.3 177.7 93.7 213.2 91.5C248.7 89.3 284.3 106.7 320 105.5C355.7 104.3 391.3 84.7 426.8 77.8C462.3 71 497.7 77 533.2 79.8C568.7 82.7 604.3 82.3 640 82.3C675.7 82.3 711.3 82.7 746.8 87.3C782.3 92 817.7 101 853.2 103.8C888.7 106.7 924.3 103.3 942.2 101.7L960 100L960 0L942.2 0C924.3 0 888.7 0 853.2 0C817.7 0 782.3 0 746.8 0C711.3 0 675.7 0 640 0C604.3 0 568.7 0 533.2 0C497.7 0 462.3 0 426.8 0C391.3 0 355.7 0 320 0C284.3 0 248.7 0 213.2 0C177.7 0 142.3 0 106.8 0C71.3 0 35.7 0 17.8 0L0 0Z" fill="#004dff" stroke-linecap="round" stroke-linejoin="miter"></path></svg>